<svg xmlns="http://www.w3.org/2000/svg" xmlns:xlink="http://www.w3.org/1999/xlink" viewBox="0 0 400 400" width="400" height="400" preserveAspectRatio="xMidYMid meet" style="width: 100%; height: 100%; transform: translate3d(0px, 0px, 0px); content-visibility: visible;"><defs><clipPath id="__lottie_element_73"><rect width="400" height="400" x="0" y="0"></rect></clipPath><linearGradient id="__lottie_element_78" spreadMethod="pad" gradientUnits="userSpaceOnUse" x1="-130.8800048828125" y1="37.382999420166016" x2="-65.59200286865234" y2="-27.617000579833984"><stop offset="0%" stop-color="rgb(68,79,102)" stop-opacity="1"></stop><stop offset="50%" stop-color="rgb(66,77,99)" stop-opacity="0.550000011920929"></stop><stop offset="100%" stop-color="rgb(64,75,97)" stop-opacity="0.10000000149011612"></stop></linearGradient><linearGradient id="__lottie_element_82" spreadMethod="pad" gradientUnits="userSpaceOnUse" x1="136.20799255371094" y1="32.64699935913086" x2="-30.9689998626709" y2="-22.85300064086914"><stop offset="0%" stop-color="rgb(68,79,102)" stop-opacity="1"></stop><stop offset="50%" stop-color="rgb(66,77,99)" stop-opacity="0.550000011920929"></stop><stop offset="100%" stop-color="rgb(64,75,97)" stop-opacity="0.10000000149011612"></stop></linearGradient><clipPath id="__lottie_element_84"><path d="M0,0 L100,0 L100,100 L0,100z"></path></clipPath><clipPath id="__lottie_element_88"><path d="M0,0 L80,0 L80,80 L0,80z"></path></clipPath><clipPath id="__lottie_element_92"><path d="M0,0 L80,0 L80,80 L0,80z"></path></clipPath><linearGradient id="__lottie_element_99" spreadMethod="pad" gradientUnits="userSpaceOnUse" x1="-51.58599853515625" y1="-102.35800170898438" x2="22.562000274658203" y2="103.19499969482422"><stop offset="0%" stop-color="rgb(48,55,69)"></stop><stop offset="50%" stop-color="rgb(41,47,59)"></stop><stop offset="100%" stop-color="rgb(33,38,48)"></stop></linearGradient><linearGradient id="__lottie_element_100" spreadMethod="pad" gradientUnits="userSpaceOnUse" x1="87.5" y1="94.16699981689453" x2="-110.83300018310547" y2="-101.66699981689453"><stop offset="0%" stop-color="rgb(98,98,98)" stop-opacity="0"></stop><stop offset="39%" stop-color="rgb(102,110,131)" stop-opacity="0.07500000298023224"></stop><stop offset="78%" stop-color="rgb(106,122,164)" stop-opacity="0.15000000596046448"></stop><stop offset="89%" stop-color="rgb(106,122,163)" stop-opacity="0.2750000059604645"></stop><stop offset="100%" stop-color="rgb(105,121,163)" stop-opacity="0.4000000059604645"></stop></linearGradient><clipPath id="__lottie_element_102"><path d="M0,0 L67,0 L67,67 L0,67z"></path></clipPath><linearGradient id="__lottie_element_126" spreadMethod="pad" gradientUnits="userSpaceOnUse" x1="-41.26900100708008" y1="-81.88600158691406" x2="18.048999786376953" y2="82.55599975585938"><stop offset="0%" stop-color="rgb(48,55,69)"></stop><stop offset="50%" stop-color="rgb(41,47,59)"></stop><stop offset="100%" stop-color="rgb(33,38,48)"></stop></linearGradient><linearGradient id="__lottie_element_127" spreadMethod="pad" gradientUnits="userSpaceOnUse" x1="70" y1="75.33300018310547" x2="-88.66699981689453" y2="-81.33300018310547"><stop offset="0%" stop-color="rgb(98,98,98)" stop-opacity="0"></stop><stop offset="39%" stop-color="rgb(102,110,131)" stop-opacity="0.07500000298023224"></stop><stop offset="78%" stop-color="rgb(106,122,164)" stop-opacity="0.15000000596046448"></stop><stop offset="89%" stop-color="rgb(106,122,163)" stop-opacity="0.2750000059604645"></stop><stop offset="100%" stop-color="rgb(105,121,163)" stop-opacity="0.4000000059604645"></stop></linearGradient><linearGradient id="__lottie_element_135" spreadMethod="pad" gradientUnits="userSpaceOnUse" x1="-41.26900100708008" y1="-81.88600158691406" x2="18.048999786376953" y2="82.55599975585938"><stop offset="0%" stop-color="rgb(48,55,69)"></stop><stop offset="50%" stop-color="rgb(41,47,59)"></stop><stop offset="100%" stop-color="rgb(33,38,48)"></stop></linearGradient><linearGradient id="__lottie_element_136" spreadMethod="pad" gradientUnits="userSpaceOnUse" x1="70" y1="75.33300018310547" x2="-88.66699981689453" y2="-81.33300018310547"><stop offset="0%" stop-color="rgb(98,98,98)" stop-opacity="0"></stop><stop offset="39%" stop-color="rgb(102,110,131)" stop-opacity="0.07500000298023224"></stop><stop offset="78%" stop-color="rgb(106,122,164)" stop-opacity="0.15000000596046448"></stop><stop offset="89%" stop-color="rgb(106,122,163)" stop-opacity="0.2750000059604645"></stop><stop offset="100%" stop-color="rgb(105,121,163)" stop-opacity="0.4000000059604645"></stop></linearGradient></defs><g clip-path="url(#__lottie_element_73)"><g transform="matrix(1,0,0,1,200.22900390625,142.75)" opacity="1" style="display: block;"><g opacity="1" transform="matrix(1,0,0,1,0,0)"><path fill="rgb(32,37,48)" fill-opacity="1" d=" M1.284000039100647,6.84499979019165 C1.284000039100647,6.84499979019165 1.284000039100647,57.106998443603516 1.284000039100647,57.106998443603516 C1.284000039100647,57.106998443603516 1.284000039100647,57.117000579833984 1.284000039100647,57.117000579833984 C1.284000039100647,57.117000579833984 -52.37699890136719,57.117000579833984 -52.37699890136719,57.117000579833984 C-52.37699890136719,57.117000579833984 -116.76799774169922,5.577000141143799 -116.76799774169922,5.577000141143799 C-116.76799774169922,5.577000141143799 -116.76799774169922,-57.117000579833984 -116.76799774169922,-57.117000579833984 C-116.76799774169922,-57.117000579833984 -66.66400146484375,-57.117000579833984 -66.66400146484375,-57.117000579833984 C-66.66400146484375,-57.117000579833984 -66.66400146484375,-27.548999786376953 -66.66400146484375,-27.548999786376953 C-62.0989990234375,-31.79199981689453 -57.17599868774414,-35.63600158691406 -51.95899963378906,-39.04100036621094 C-34.249000549316406,-50.59400177001953 -13.675000190734863,-56.698001861572266 7.519999980926514,-56.698001861572266 C22.2549991607666,-56.698001861572266 36.573001861572266,-53.79399871826172 50.04399871826172,-48.05799865722656 C63.05699920654297,-42.547000885009766 74.73400115966797,-34.64400100708008 84.76100158691406,-24.583999633789062 C94.78800201416016,-14.52400016784668 102.66500091552734,-2.805999994277954 108.16799926757812,10.25 C113.8740005493164,23.78700065612793 116.76799774169922,38.14099884033203 116.76799774169922,52.92499923706055 C116.76799774169922,52.92499923706055 116.76799774169922,56.50299835205078 116.76799774169922,56.50299835205078 C116.76799774169922,56.50299835205078 63.79999923706055,56.50299835205078 63.79999923706055,56.50299835205078 C63.79999923706055,56.50299835205078 63.79999923706055,52.92499923706055 63.79999923706055,52.92499923706055 C63.79999923706055,21.792999267578125 38.54899978637695,-3.5429999828338623 7.519999980926514,-3.5429999828338623 C-3.4040000438690186,-3.5429999828338623 -13.991000175476074,-0.414000004529953 -23.090999603271484,5.526000022888184 C-23.743000030517578,5.945000171661377 -24.395000457763672,6.394999980926514 -25.027000427246094,6.84499979019165 C-25.027000427246094,6.84499979019165 1.284000039100647,6.84499979019165 1.284000039100647,6.84499979019165z"></path><path stroke="url(#__lottie_element_78)" stroke-linecap="butt" stroke-linejoin="miter" fill-opacity="0" stroke-miterlimit="4" stroke-opacity="1" stroke-width="1.479" d=" M1.284000039100647,6.84499979019165 C1.284000039100647,6.84499979019165 1.284000039100647,57.106998443603516 1.284000039100647,57.106998443603516 C1.284000039100647,57.106998443603516 1.284000039100647,57.117000579833984 1.284000039100647,57.117000579833984 C1.284000039100647,57.117000579833984 -52.37699890136719,57.117000579833984 -52.37699890136719,57.117000579833984 C-52.37699890136719,57.117000579833984 -116.76799774169922,5.577000141143799 -116.76799774169922,5.577000141143799 C-116.76799774169922,5.577000141143799 -116.76799774169922,-57.117000579833984 -116.76799774169922,-57.117000579833984 C-116.76799774169922,-57.117000579833984 -66.66400146484375,-57.117000579833984 -66.66400146484375,-57.117000579833984 C-66.66400146484375,-57.117000579833984 -66.66400146484375,-27.548999786376953 -66.66400146484375,-27.548999786376953 C-62.0989990234375,-31.79199981689453 -57.17599868774414,-35.63600158691406 -51.95899963378906,-39.04100036621094 C-34.249000549316406,-50.59400177001953 -13.675000190734863,-56.698001861572266 7.519999980926514,-56.698001861572266 C22.2549991607666,-56.698001861572266 36.573001861572266,-53.79399871826172 50.04399871826172,-48.05799865722656 C63.05699920654297,-42.547000885009766 74.73400115966797,-34.64400100708008 84.76100158691406,-24.583999633789062 C94.78800201416016,-14.52400016784668 102.66500091552734,-2.805999994277954 108.16799926757812,10.25 C113.8740005493164,23.78700065612793 116.76799774169922,38.14099884033203 116.76799774169922,52.92499923706055 C116.76799774169922,52.92499923706055 116.76799774169922,56.50299835205078 116.76799774169922,56.50299835205078 C116.76799774169922,56.50299835205078 63.79999923706055,56.50299835205078 63.79999923706055,56.50299835205078 C63.79999923706055,56.50299835205078 63.79999923706055,52.92499923706055 63.79999923706055,52.92499923706055 C63.79999923706055,21.792999267578125 38.54899978637695,-3.5429999828338623 7.519999980926514,-3.5429999828338623 C-3.4040000438690186,-3.5429999828338623 -13.991000175476074,-0.414000004529953 -23.090999603271484,5.526000022888184 C-23.743000030517578,5.945000171661377 -24.395000457763672,6.394999980926514 -25.027000427246094,6.84499979019165 C-25.027000427246094,6.84499979019165 1.284000039100647,6.84499979019165 1.284000039100647,6.84499979019165z"></path></g></g><g transform="matrix(1,0,0,1,200.22900390625,256.9859924316406)" opacity="1" style="display: block;"><g opacity="1" transform="matrix(1,0,0,1,0,0)"><path fill="rgb(32,37,48)" fill-opacity="1" d=" M-1.0779999494552612,-6.728000164031982 C-1.0779999494552612,-6.728000164031982 -1.0779999494552612,-57.117000579833984 -1.0779999494552612,-57.117000579833984 C-1.0779999494552612,-57.117000579833984 -1.0679999589920044,-57.106998443603516 -1.0679999589920044,-57.106998443603516 C-1.0679999589920044,-57.106998443603516 52.494998931884766,-57.106998443603516 52.494998931884766,-57.106998443603516 C52.494998931884766,-57.106998443603516 116.76799774169922,-5.456999778747559 116.76799774169922,-5.456999778747559 C116.76799774169922,-5.456999778747559 116.76799774169922,57.117000579833984 116.76799774169922,57.117000579833984 C116.76799774169922,57.117000579833984 66.75499725341797,57.117000579833984 66.75499725341797,57.117000579833984 C66.75499725341797,57.117000579833984 66.75499725341797,27.408000946044922 66.75499725341797,27.408000946044922 C46.66600036621094,46.32600021362305 19.98699951171875,57.025001525878906 -7.71999979019165,57.025001525878906 C-22.42799949645996,57.025001525878906 -36.71900177001953,54.11399841308594 -50.17599868774414,48.375 C-63.165000915527344,42.83100128173828 -74.82099914550781,34.91999816894531 -84.83000183105469,24.836000442504883 C-94.8290023803711,14.751999855041504 -102.69100189208984,3.007999897003174 -108.18399810791016,-10.079000473022461 C-113.87999725341797,-23.64699935913086 -116.76799774169922,-38.0359992980957 -116.76799774169922,-52.854000091552734 C-116.76799774169922,-52.854000091552734 -116.76799774169922,-56.439998626708984 -116.76799774169922,-56.439998626708984 C-116.76799774169922,-56.439998626708984 -63.89699935913086,-56.439998626708984 -63.89699935913086,-56.439998626708984 C-63.89699935913086,-56.439998626708984 -63.89699935913086,-52.854000091552734 -63.89699935913086,-52.854000091552734 C-63.89699935913086,-21.64900016784668 -38.69200134277344,3.746000051498413 -7.71999979019165,3.746000051498413 C4.119999885559082,3.746000051498413 15.40999984741211,0.07699999958276749 24.858999252319336,-6.728000164031982 C24.858999252319336,-6.728000164031982 -1.0779999494552612,-6.728000164031982 -1.0779999494552612,-6.728000164031982z"></path><path stroke="url(#__lottie_element_82)" stroke-linecap="butt" stroke-linejoin="miter" fill-opacity="0" stroke-miterlimit="4" stroke-opacity="1" stroke-width="1.479" d=" M-1.0779999494552612,-6.728000164031982 C-1.0779999494552612,-6.728000164031982 -1.0779999494552612,-57.117000579833984 -1.0779999494552612,-57.117000579833984 C-1.0779999494552612,-57.117000579833984 -1.0679999589920044,-57.106998443603516 -1.0679999589920044,-57.106998443603516 C-1.0679999589920044,-57.106998443603516 52.494998931884766,-57.106998443603516 52.494998931884766,-57.106998443603516 C52.494998931884766,-57.106998443603516 116.76799774169922,-5.456999778747559 116.76799774169922,-5.456999778747559 C116.76799774169922,-5.456999778747559 116.76799774169922,57.117000579833984 116.76799774169922,57.117000579833984 C116.76799774169922,57.117000579833984 66.75499725341797,57.117000579833984 66.75499725341797,57.117000579833984 C66.75499725341797,57.117000579833984 66.75499725341797,27.408000946044922 66.75499725341797,27.408000946044922 C46.66600036621094,46.32600021362305 19.98699951171875,57.025001525878906 -7.71999979019165,57.025001525878906 C-22.42799949645996,57.025001525878906 -36.71900177001953,54.11399841308594 -50.17599868774414,48.375 C-63.165000915527344,42.83100128173828 -74.82099914550781,34.91999816894531 -84.83000183105469,24.836000442504883 C-94.8290023803711,14.751999855041504 -102.69100189208984,3.007999897003174 -108.18399810791016,-10.079000473022461 C-113.87999725341797,-23.64699935913086 -116.76799774169922,-38.0359992980957 -116.76799774169922,-52.854000091552734 C-116.76799774169922,-52.854000091552734 -116.76799774169922,-56.439998626708984 -116.76799774169922,-56.439998626708984 C-116.76799774169922,-56.439998626708984 -63.89699935913086,-56.439998626708984 -63.89699935913086,-56.439998626708984 C-63.89699935913086,-56.439998626708984 -63.89699935913086,-52.854000091552734 -63.89699935913086,-52.854000091552734 C-63.89699935913086,-21.64900016784668 -38.69200134277344,3.746000051498413 -7.71999979019165,3.746000051498413 C4.119999885559082,3.746000051498413 15.40999984741211,0.07699999958276749 24.858999252319336,-6.728000164031982 C24.858999252319336,-6.728000164031982 -1.0779999494552612,-6.728000164031982 -1.0779999494552612,-6.728000164031982z"></path></g></g><g clip-path="url(#__lottie_element_84)" transform="matrix(1,0,0,1,173.25,202.63299560546875)" opacity="1" style="display: block;"><g transform="matrix(0.9993748664855957,-0.03535277768969536,0.03535277768969536,0.9993748664855957,50,50)" opacity="1" style="display: block;"><g opacity="1" transform="matrix(1,0,0,1,0,0)"><path fill="url(#__lottie_element_99)" fill-opacity="1" d=" M50,0 C50,0 50,0 50,0 C50,27.594999313354492 27.594999313354492,50 0,50 C0,50 0,50 0,50 C-27.594999313354492,50 -50,27.594999313354492 -50,0 C-50,0 -50,0 -50,0 C-50,-27.594999313354492 -27.594999313354492,-50 0,-50 C0,-50 0,-50 0,-50 C27.594999313354492,-50 50,-27.594999313354492 50,0z"></path><path stroke="url(#__lottie_element_100)" stroke-linecap="butt" stroke-linejoin="miter" fill-opacity="0" stroke-miterlimit="4" stroke-opacity="1" stroke-width="1.667" d=" M50,0 C50,0 50,0 50,0 C50,27.594999313354492 27.594999313354492,50 0,50 C0,50 0,50 0,50 C-27.594999313354492,50 -50,27.594999313354492 -50,0 C-50,0 -50,0 -50,0 C-50,-27.594999313354492 -27.594999313354492,-50 0,-50 C0,-50 0,-50 0,-50 C27.594999313354492,-50 50,-27.594999313354492 50,0z"></path></g></g><g clip-path="url(#__lottie_element_102)" transform="matrix(1,0,0,1,16.505001068115234,16.500999450683594)" opacity="1" style="display: block;"><g transform="matrix(1,0,0,1,33.33300018310547,33.33300018310547)" opacity="1" style="display: block;"><g opacity="1" transform="matrix(1,0,0,1,0,0)"></g></g><g transform="matrix(1,0,0,1,33.35200119018555,33.33300018310547)" opacity="1" style="display: block;"><g opacity="1" transform="matrix(1,0,0,1,0,0)"><path stroke-linecap="round" stroke-linejoin="round" fill-opacity="0" stroke="rgb(255,255,255)" stroke-opacity="1" stroke-width="4.167" d=" M9.263999938964844,-6.4720001220703125 C9.263999938964844,-10.055000305175781 6.513999938964844,-12.944000244140625 3.0969998836517334,-12.944000244140625 C3.0969998836517334,-12.944000244140625 -3.875,-12.944000244140625 -3.875,-12.944000244140625 C-6.8470001220703125,-12.944000244140625 -9.263999938964844,-10.416999816894531 -9.263999938964844,-7.306000232696533 C-9.263999938964844,-3.9170000553131104 -7.790999889373779,-2.7219998836517334 -5.5970001220703125,-1.944000005722046 C-5.5970001220703125,-1.944000005722046 5.5970001220703125,1.944000005722046 5.5970001220703125,1.944000005722046 C7.790999889373779,2.7219998836517334 9.263999938964844,3.9170000553131104 9.263999938964844,7.306000232696533 C9.263999938964844,10.416999816894531 6.8470001220703125,12.944000244140625 3.875,12.944000244140625 C3.875,12.944000244140625 -3.0969998836517334,12.944000244140625 -3.0969998836517334,12.944000244140625 C-6.513999938964844,12.944000244140625 -9.263999938964844,10.055000305175781 -9.263999938964844,6.4720001220703125"></path></g></g><g transform="matrix(1,0,0,1,33.33300018310547,33.33300018310547)" opacity="1" style="display: block;"><g opacity="1" transform="matrix(1,0,0,1,0,0)"><path stroke-linecap="round" stroke-linejoin="round" fill-opacity="0" stroke="rgb(255,255,255)" stroke-opacity="1" stroke-width="4.167" d=" M0,16.66699981689453 C0,16.66699981689453 0,-16.66699981689453 0,-16.66699981689453"></path></g></g><g transform="matrix(1,0,0,1,33.33300018310547,33.33300018310547)" opacity="1" style="display: block;"><g opacity="1" transform="matrix(1,0,0,1,0,0)"></g></g><g transform="matrix(1,0,0,1,33.33300018310547,33.33300018310547)" opacity="1" style="display: block;"><g opacity="1" transform="matrix(1,0,0,1,0,0)"></g></g></g></g><g clip-path="url(#__lottie_element_88)" transform="matrix(1,0,0,1,66.25,125.63299560546875)" opacity="1" style="display: block;"><g transform="matrix(0.9993748664855957,-0.03535277768969536,0.03535277768969536,0.9993748664855957,40,40)" opacity="1" style="display: block;"><g opacity="1" transform="matrix(1,0,0,1,0,0)"><path fill="url(#__lottie_element_126)" fill-opacity="1" d=" M40,0 C40,0 40,0 40,0 C40,22.076000213623047 22.076000213623047,40 0,40 C0,40 0,40 0,40 C-22.076000213623047,40 -40,22.076000213623047 -40,0 C-40,0 -40,0 -40,0 C-40,-22.076000213623047 -22.076000213623047,-40 0,-40 C0,-40 0,-40 0,-40 C22.076000213623047,-40 40,-22.076000213623047 40,0z"></path><path stroke="url(#__lottie_element_127)" stroke-linecap="butt" stroke-linejoin="miter" fill-opacity="0" stroke-miterlimit="4" stroke-opacity="1" stroke-width="1.333" d=" M40,0 C40,0 40,0 40,0 C40,22.076000213623047 22.076000213623047,40 0,40 C0,40 0,40 0,40 C-22.076000213623047,40 -40,22.076000213623047 -40,0 C-40,0 -40,0 -40,0 C-40,-22.076000213623047 -22.076000213623047,-40 0,-40 C0,-40 0,-40 0,-40 C22.076000213623047,-40 40,-22.076000213623047 40,0z"></path></g></g><g transform="matrix(1,0,0,1,39.994998931884766,40.459999084472656)" opacity="1" style="display: block;"><g opacity="1" transform="matrix(1,0,0,1,0,0)"><path fill="rgb(255,255,255)" fill-opacity="1" d=" M-7.853000164031982,-1.406999945640564 C-7.853000164031982,-1.406999945640564 -7.736000061035156,-0.9574999809265137 -7.736000061035156,-0.9574999809265137 C-7.6714277267456055,-0.7094209790229797 -8.067099571228027,-0.5080000162124634 -8.618999481201172,-0.5080000162124634 C-8.618999481201172,-0.5080000162124634 -9.666999816894531,-0.5080000162124634 -9.666999816894531,-0.5080000162124634 C-10.218899726867676,-0.5080000162124634 -10.666999816894531,-0.05990001559257507 -10.666999816894531,0.4919999837875366 C-10.666999816894531,0.4919999837875366 -10.666999816894531,1.812999963760376 -10.666999816894531,1.812999963760376 C-10.666999816894531,2.3648998737335205 -10.218899726867676,2.812999963760376 -9.666999816894531,2.812999963760376 C-9.666999816894531,2.812999963760376 -7.228000164031982,2.812999963760376 -7.228000164031982,2.812999963760376 C-7.189000129699707,4.1020002365112305 -7.423999786376953,5.353000164031982 -7.89300012588501,6.603000164031982 C-8.362000465393066,7.853000164031982 -9.104000091552734,9.024999618530273 -10.041999816894531,10.041000366210938 C-10.041999816894531,10.041000366210938 -10.041999816894531,12.791999816894531 -10.041999816894531,12.791999816894531 C-10.041999816894531,13.343899726867676 -9.593899726867676,13.791999816894531 -9.041999816894531,13.791999816894531 C-9.041999816894531,13.791999816894531 9.58899974822998,13.791999816894531 9.58899974822998,13.791999816894531 C10.140899658203125,13.791999816894531 10.58899974822998,13.343899726867676 10.58899974822998,12.791999816894531 C10.58899974822998,12.791999816894531 10.58899974822998,10.845999717712402 10.58899974822998,10.845999717712402 C10.58899974822998,10.294099807739258 10.140905380249023,9.843779563903809 9.589012145996094,9.841044425964355 C9.589012145996094,9.841044425964355 -5.353000164031982,9.767000198364258 -5.353000164031982,9.767000198364258 C-4.572000026702881,8.946999549865723 -3.984999895095825,7.96999979019165 -3.5160000324249268,6.875999927520752 C-3.0859999656677246,5.7820000648498535 -2.8519999980926514,4.688000202178955 -2.8519999980926514,3.632999897003174 C-2.8519999980926514,3.2809998989105225 -2.8910000324249268,3.007999897003174 -2.8910000324249268,2.812999963760376 C-2.8910000324249268,2.812999963760376 3.6500000953674316,2.812999963760376 3.6500000953674316,2.812999963760376 C4.201900005340576,2.812999963760376 4.650000095367432,2.3648998737335205 4.650000095367432,1.812999963760376 C4.650000095367432,1.812999963760376 4.650000095367432,0.4919999837875366 4.650000095367432,0.4919999837875366 C4.650000095367432,-0.05990001559257507 4.201900005340576,-0.5080000162124634 3.6500000953674316,-0.5080000162124634 C3.6500000953674316,-0.5080000162124634 -2.2820000648498535,-0.5080000162124634 -2.2820000648498535,-0.5080000162124634 C-2.833899974822998,-0.5080000162124634 -3.3433897495269775,-0.7356348037719727 -3.4190001487731934,-1.0160000324249268 C-3.4190001487731934,-1.0160000324249268 -3.555999994277954,-1.5240000486373901 -3.555999994277954,-1.5240000486373901 C-3.7119998931884766,-2.109999895095825 -3.868000030517578,-2.696000099182129 -3.984999895095825,-3.321000099182129 C-4.140999794006348,-3.946000099182129 -4.181000232696533,-4.493000030517578 -4.181000232696533,-4.961999893188477 C-4.181000232696533,-6.447000026702881 -3.7119998931884766,-7.6570000648498535 -2.7739999294281006,-8.595000267028809 C-1.8359999656677246,-9.494000434875488 -0.5860000252723694,-9.963000297546387 0.9769999980926514,-9.963000297546387 C2.5789999961853027,-9.963000297546387 3.8289999961853027,-9.494000434875488 4.728000164031982,-8.595000267028809 C5.626999855041504,-7.6570000648498535 6.173999786376953,-6.4079999923706055 6.4079999923706055,-4.767000198364258 C6.4079999923706055,-4.767000198364258 10.666999816894531,-4.767000198364258 10.666999816894531,-4.767000198364258 C10.432999610900879,-7.579999923706055 9.454999923706055,-9.805999755859375 7.736000061035156,-11.407999992370605 C6.017000198364258,-12.970999717712402 3.671999931335449,-13.791999816894531 0.781000018119812,-13.791999816894531 C-0.9380000233650208,-13.791999816894531 -2.5,-13.401000022888184 -3.9070000648498535,-12.697999954223633 C-5.314000129699707,-11.956000328063965 -6.446000099182129,-10.939000129699707 -7.267000198364258,-9.649999618530273 C-8.088000297546387,-8.361000061035156 -8.479000091552734,-6.875999927520752 -8.479000091552734,-5.235000133514404 C-8.479000091552734,-4.610000133514404 -8.439000129699707,-4.02400016784668 -8.321999549865723,-3.4769999980926514 C-8.244000434875488,-2.930000066757202 -8.086999893188477,-2.2669999599456787 -7.853000164031982,-1.406999945640564z"></path></g></g></g><g clip-path="url(#__lottie_element_92)" transform="matrix(1,0,0,1,251.25,102.63299560546875)" opacity="1" style="display: block;"><g transform="matrix(0.9993748664855957,-0.03535277768969536,0.03535277768969536,0.9993748664855957,40,40)" opacity="1" style="display: block;"><g opacity="1" transform="matrix(1,0,0,1,0,0)"><path fill="url(#__lottie_element_135)" fill-opacity="1" d=" M40,0 C40,0 40,0 40,0 C40,22.076000213623047 22.076000213623047,40 0,40 C0,40 0,40 0,40 C-22.076000213623047,40 -40,22.076000213623047 -40,0 C-40,0 -40,0 -40,0 C-40,-22.076000213623047 -22.076000213623047,-40 0,-40 C0,-40 0,-40 0,-40 C22.076000213623047,-40 40,-22.076000213623047 40,0z"></path><path stroke="url(#__lottie_element_136)" stroke-linecap="butt" stroke-linejoin="miter" fill-opacity="0" stroke-miterlimit="4" stroke-opacity="1" stroke-width="1.333" d=" M40,0 C40,0 40,0 40,0 C40,22.076000213623047 22.076000213623047,40 0,40 C0,40 0,40 0,40 C-22.076000213623047,40 -40,22.076000213623047 -40,0 C-40,0 -40,0 -40,0 C-40,-22.076000213623047 -22.076000213623047,-40 0,-40 C0,-40 0,-40 0,-40 C22.076000213623047,-40 40,-22.076000213623047 40,0z"></path></g></g><g transform="matrix(1,0,0,1,40,40.650001525878906)" opacity="1" style="display: block;"><g opacity="1" transform="matrix(1,0,0,1,0,0)"><path fill="rgb(255,255,255)" fill-opacity="1" d=" M-11,1.2960000038146973 C-11.551899909973145,1.2960000038146973 -12,1.7440999746322632 -12,2.2960000038146973 C-12,2.2960000038146973 -12,3.242000102996826 -12,3.242000102996826 C-12,3.7939000129699707 -11.551899909973145,4.242000102996826 -11,4.242000102996826 C-11,4.242000102996826 -9.289999961853027,4.242000102996826 -9.289999961853027,4.242000102996826 C-8.819000244140625,7.306000232696533 -7.599999904632568,9.70300006866455 -5.715000152587891,11.430999755859375 C-3.8299999237060547,13.159000396728516 -1.434000015258789,13.984000205993652 1.4730000495910645,13.984000205993652 C4.498000144958496,13.984000205993652 6.933000087738037,13.159000396728516 8.779000282287598,11.430999755859375 C10.586000442504883,9.70300006866455 11.647000312805176,7.385000228881836 11.961000442504883,4.400000095367432 C11.961000442504883,4.400000095367432 7.560999870300293,4.400000095367432 7.560999870300293,4.400000095367432 C7.247000217437744,6.206999778747559 6.618000030517578,7.581999778747559 5.5970001220703125,8.602999687194824 C4.576000213623047,9.62399959564209 3.2790000438690186,10.135000228881836 1.6690000295639038,10.135000228881836 C-0.019999999552965164,10.135000228881836 -1.434000015258789,9.62399959564209 -2.5339999198913574,8.602999687194824 C-3.634000062942505,7.581999778747559 -4.379000186920166,6.127999782562256 -4.732999801635742,4.242000102996826 C-4.732999801635742,4.242000102996826 -0.31300002336502075,4.242000102996826 -0.31300002336502075,4.242000102996826 C0.23889997601509094,4.242000102996826 0.7635818719863892,3.800492763519287 0.8579035997390747,3.2567124366760254 C0.8579035997390747,3.2567124366760254 1.0270963907241821,2.281287670135498 1.0270963907241821,2.281287670135498 C1.1214179992675781,1.7375074625015259 0.7498999834060669,1.2960000038146973 0.1979999542236328,1.2960000038146973 C0.1979999542236328,1.2960000038146973 -4.007999897003174,1.2960000038146973 -4.007999897003174,1.2960000038146973 C-4.559899806976318,1.2960000038146973 -5.016737937927246,0.9968932271003723 -5.027500152587891,0.6284999847412109 C-5.027500152587891,0.6284999847412109 -5.046999931335449,-0.039000000804662704 -5.046999931335449,-0.039000000804662704 C-5.046999931335449,-0.47099998593330383 -5.046999931335449,-0.824999988079071 -5.007999897003174,-1.0609999895095825 C-5.007999897003174,-1.0609999895095825 0.7480000257492065,-1.0609999895095825 0.7480000257492065,-1.0609999895095825 C1.2999000549316406,-1.0609999895095825 1.8256046772003174,-1.502328872680664 1.9211859703063965,-2.045889139175415 C1.9211859703063965,-2.045889139175415 2.0858139991760254,-2.9821109771728516 2.0858139991760254,-2.9821109771728516 C2.1813955307006836,-3.5256712436676025 1.810900092124939,-3.9670000076293945 1.2590000629425049,-3.9670000076293945 C1.2590000629425049,-3.9670000076293945 -4.732999801635742,-3.9670000076293945 -4.732999801635742,-3.9670000076293945 C-4.458000183105469,-5.931000232696533 -3.750999927520752,-7.423999786376953 -2.611999988555908,-8.52400016784668 C-1.5119999647140503,-9.585000038146973 -0.09799999743700027,-10.135000228881836 1.6299999952316284,-10.135000228881836 C3.2799999713897705,-10.135000228881836 4.616000175476074,-9.62399959564209 5.63700008392334,-8.602999687194824 C6.6579999923706055,-7.581999778747559 7.324999809265137,-6.168000221252441 7.560999870300293,-4.400000095367432 C7.560999870300293,-4.400000095367432 12,-4.400000095367432 12,-4.400000095367432 C11.763999938964844,-7.307000160217285 10.704000473022461,-9.663999557495117 8.857999801635742,-11.392000198364258 C6.9730000495910645,-13.119999885559082 4.5370001792907715,-13.984000205993652 1.4730000495910645,-13.984000205993652 C-1.434000015258789,-13.984000205993652 -3.86899995803833,-13.081000328063965 -5.794000148773193,-11.312999725341797 C-7.718999862670898,-9.545000076293945 -8.897000312805176,-7.110000133514404 -9.289999961853027,-3.9670000076293945 C-9.289999961853027,-3.9670000076293945 -11,-3.9670000076293945 -11,-3.9670000076293945 C-11.551899909973145,-3.9670000076293945 -12,-3.518899917602539 -12,-2.9670000076293945 C-12,-2.9670000076293945 -12,-2.060999870300293 -12,-2.060999870300293 C-12,-1.5090999603271484 -11.551899909973145,-1.0609999895095825 -11,-1.0609999895095825 C-11,-1.0609999895095825 -9.486000061035156,-1.0609999895095825 -9.486000061035156,-1.0609999895095825 C-9.524999618530273,-0.746999979019165 -9.524999618530273,-0.3930000066757202 -9.524999618530273,0 C-9.524999618530273,0.6679999828338623 -9.524999618530273,1.100000023841858 -9.486000061035156,1.2960000038146973 C-9.486000061035156,1.2960000038146973 -11,1.2960000038146973 -11,1.2960000038146973z"></path></g></g></g></g></svg>